<?xml version="1.0" encoding="UTF-8" standalone="no"?>
<!DOCTYPE svg PUBLIC "-//W3C//DTD SVG 1.1//EN"
 "http://www.w3.org/Graphics/SVG/1.1/DTD/svg11.dtd">
<!-- Generated by graphviz version 5.0.0 (20220707.1540)
 -->
<!-- Title: dependencies Pages: 1 -->
<svg width="194pt" height="247pt"
 viewBox="0.00 0.00 194.00 246.80" xmlns="http://www.w3.org/2000/svg" xmlns:xlink="http://www.w3.org/1999/xlink">
<g id="graph0" class="graph" transform="scale(1 1) rotate(0) translate(4 242.8)">
<title>dependencies</title>
<polygon fill="white" stroke="transparent" points="-4,4 -4,-242.8 190,-242.8 190,4 -4,4"/>
<text text-anchor="middle" x="93" y="-8.2" font-family="sans-serif" font-size="14.00">dependencies</text>
<g id="clust1" class="cluster">
<title>cluster_NgxEchartsModule</title>
<polygon fill="none" stroke="black" stroke-dasharray="1,5" points="8,-32.8 8,-230.8 178,-230.8 178,-32.8 8,-32.8"/>
</g>
<g id="clust3" class="cluster">
<title>cluster_NgxEchartsModule_imports</title>
<polygon fill="none" stroke="black" points="18,-40.8 18,-92.8 168,-92.8 168,-40.8 18,-40.8"/>
</g>
<g id="clust4" class="cluster">
<title>cluster_NgxEchartsModule_exports</title>
<polygon fill="none" stroke="black" points="16,-170.8 16,-222.8 170,-222.8 170,-170.8 16,-170.8"/>
</g>
<!-- NgxEchartsDirective -->
<g id="node1" class="node">
<title>NgxEchartsDirective</title>
<polygon fill="#8dd3c7" stroke="black" points="160.17,-84.8 157.17,-88.8 136.17,-88.8 133.17,-84.8 25.83,-84.8 25.83,-48.8 160.17,-48.8 160.17,-84.8"/>
<text text-anchor="middle" x="93" y="-62.6" font-family="Times,serif" font-size="14.00">NgxEchartsDirective</text>
</g>
<!-- NgxEchartsModule -->
<g id="node2" class="node">
<title>NgxEchartsModule</title>
<polygon fill="#8dd3c7" stroke="black" points="155.64,-149.8 152.64,-153.8 131.64,-153.8 128.64,-149.8 30.36,-149.8 30.36,-113.8 155.64,-113.8 155.64,-149.8"/>
<text text-anchor="middle" x="93" y="-127.6" font-family="Times,serif" font-size="14.00">NgxEchartsModule</text>
</g>
<!-- NgxEchartsDirective&#45;&gt;NgxEchartsModule -->
<g id="edge1" class="edge">
<title>NgxEchartsDirective&#45;&gt;NgxEchartsModule</title>
<path fill="none" stroke="black" d="M93,-84.91C93,-84.91 93,-103.79 93,-103.79"/>
<polygon fill="black" stroke="black" points="89.5,-103.79 93,-113.79 96.5,-103.79 89.5,-103.79"/>
</g>
<!-- NgxEchartsDirective  -->
<g id="node3" class="node">
<title>NgxEchartsDirective </title>
<polygon fill="#fb8072" stroke="black" points="161.67,-214.8 24.33,-214.8 24.33,-178.8 161.67,-178.8 161.67,-214.8"/>
<text text-anchor="middle" x="93" y="-192.6" font-family="Times,serif" font-size="14.00">NgxEchartsDirective </text>
</g>
<!-- NgxEchartsModule&#45;&gt;NgxEchartsDirective  -->
<g id="edge2" class="edge">
<title>NgxEchartsModule&#45;&gt;NgxEchartsDirective </title>
<path fill="none" stroke="black" stroke-dasharray="5,2" d="M93,-149.91C93,-149.91 93,-168.79 93,-168.79"/>
<polygon fill="black" stroke="black" points="89.5,-168.79 93,-178.79 96.5,-168.79 89.5,-168.79"/>
</g>
</g>
</svg>
