<svg width="818" height="200" viewBox="0 0 818 200" fill="none" xmlns="http://www.w3.org/2000/svg">
<g clip-path="url(#clip0_2_70)">
<path d="M92.4 0L0 33.3L14 156.1L92.4 200L171.3 156.1L185.6 33.3L92.4 0Z" fill="#03A9F4"/>
<path d="M92.4 0V22.2V123.2V200L171.3 156.1L185.6 33.3L92.4 0Z" fill="#039BE5"/>
<path d="M92.5 52C80.7441 52 70.3426 57.6362 64 66.28L92.5 86L121 66.28C114.657 57.6362 104.256 52 92.5 52Z" fill="white"/>
<path d="M93 148C120.614 148 143 125.614 143 98C143 87.1887 139.569 77.1788 133.736 69L93 98L52.2643 69C46.4313 77.1788 43 87.1887 43 98C43 125.614 65.3858 148 93 148Z" fill="white"/>
</g>
<path d="M251.367 77.7109L273.672 111.461V77.3984C273.672 75.1849 274.141 73.5312 275.078 72.4375C276.042 71.3177 277.331 70.7578 278.945 70.7578C280.612 70.7578 281.927 71.3177 282.891 72.4375C283.854 73.5312 284.336 75.1849 284.336 77.3984V122.438C284.336 127.464 282.253 129.977 278.086 129.977C277.044 129.977 276.107 129.82 275.273 129.508C274.44 129.221 273.659 128.753 272.93 128.102C272.201 127.451 271.523 126.695 270.898 125.836C270.273 124.951 269.648 124.052 269.023 123.141L247.266 89.7812V123.336C247.266 125.523 246.758 127.177 245.742 128.297C244.727 129.417 243.424 129.977 241.836 129.977C240.195 129.977 238.88 129.417 237.891 128.297C236.901 127.151 236.406 125.497 236.406 123.336V79.1562C236.406 77.2812 236.615 75.8099 237.031 74.7422C237.526 73.5703 238.346 72.6198 239.492 71.8906C240.638 71.1354 241.875 70.7578 243.203 70.7578C244.245 70.7578 245.13 70.9271 245.859 71.2656C246.615 71.6042 247.266 72.0599 247.812 72.6328C248.385 73.2057 248.958 73.9479 249.531 74.8594C250.13 75.7708 250.742 76.7214 251.367 77.7109ZM349.336 105.719V116.695C349.336 118.154 349.193 119.326 348.906 120.211C348.62 121.07 348.086 121.852 347.305 122.555C346.549 123.258 345.573 123.935 344.375 124.586C340.911 126.461 337.578 127.828 334.375 128.688C331.172 129.547 327.682 129.977 323.906 129.977C319.505 129.977 315.495 129.299 311.875 127.945C308.255 126.591 305.169 124.625 302.617 122.047C300.065 119.469 298.099 116.344 296.719 112.672C295.365 109 294.688 104.898 294.688 100.367C294.688 95.9141 295.352 91.8385 296.68 88.1406C298.008 84.4427 299.961 81.3047 302.539 78.7266C305.117 76.1484 308.255 74.1823 311.953 72.8281C315.651 71.4479 319.844 70.7578 324.531 70.7578C328.385 70.7578 331.797 71.2786 334.766 72.3203C337.734 73.3359 340.143 74.625 341.992 76.1875C343.841 77.75 345.234 79.4036 346.172 81.1484C347.109 82.8932 347.578 84.4427 347.578 85.7969C347.578 87.2552 347.031 88.5052 345.938 89.5469C344.87 90.5625 343.581 91.0703 342.07 91.0703C341.237 91.0703 340.43 90.875 339.648 90.4844C338.893 90.0938 338.255 89.5469 337.734 88.8438C336.302 86.6042 335.091 84.9115 334.102 83.7656C333.112 82.6198 331.771 81.6562 330.078 80.875C328.411 80.0938 326.276 79.7031 323.672 79.7031C320.99 79.7031 318.594 80.1719 316.484 81.1094C314.375 82.0208 312.565 83.362 311.055 85.1328C309.57 86.8776 308.424 89.026 307.617 91.5781C306.836 94.1302 306.445 96.9557 306.445 100.055C306.445 106.773 307.982 111.943 311.055 115.562C314.154 119.182 318.464 120.992 323.984 120.992C326.667 120.992 329.18 120.641 331.523 119.938C333.893 119.234 336.289 118.232 338.711 116.93V107.633H329.727C327.565 107.633 325.924 107.307 324.805 106.656C323.711 106.005 323.164 104.898 323.164 103.336C323.164 102.06 323.62 101.005 324.531 100.172C325.469 99.3385 326.732 98.9219 328.32 98.9219H341.484C343.099 98.9219 344.466 99.0651 345.586 99.3516C346.706 99.638 347.604 100.276 348.281 101.266C348.984 102.255 349.336 103.74 349.336 105.719ZM358.281 117.867L371.094 99.1562L360.312 82.5156C359.297 80.901 358.529 79.5208 358.008 78.375C357.513 77.2031 357.266 76.0833 357.266 75.0156C357.266 73.9219 357.747 72.9453 358.711 72.0859C359.701 71.2005 360.898 70.7578 362.305 70.7578C363.919 70.7578 365.169 71.2396 366.055 72.2031C366.966 73.1406 368.216 74.8984 369.805 77.4766L378.398 91.3828L387.578 77.4766C388.333 76.3047 388.971 75.3021 389.492 74.4688C390.039 73.6354 390.56 72.9453 391.055 72.3984C391.549 71.8516 392.096 71.4479 392.695 71.1875C393.32 70.901 394.036 70.7578 394.844 70.7578C396.302 70.7578 397.487 71.2005 398.398 72.0859C399.336 72.9453 399.805 73.974 399.805 75.1719C399.805 76.9167 398.802 79.2865 396.797 82.2812L385.508 99.1562L397.656 117.867C398.75 119.508 399.544 120.875 400.039 121.969C400.534 123.036 400.781 124.052 400.781 125.016C400.781 125.927 400.56 126.76 400.117 127.516C399.674 128.271 399.049 128.87 398.242 129.312C397.435 129.755 396.523 129.977 395.508 129.977C394.414 129.977 393.49 129.742 392.734 129.273C391.979 128.831 391.367 128.271 390.898 127.594C390.43 126.917 389.557 125.602 388.281 123.648L378.203 107.789L367.5 124.117C366.667 125.419 366.068 126.331 365.703 126.852C365.365 127.372 364.948 127.88 364.453 128.375C363.958 128.87 363.372 129.26 362.695 129.547C362.018 129.833 361.224 129.977 360.312 129.977C358.906 129.977 357.734 129.547 356.797 128.688C355.885 127.828 355.43 126.578 355.43 124.938C355.43 123.01 356.38 120.654 358.281 117.867ZM422.031 112.906H409.688C407.812 112.906 406.38 112.477 405.391 111.617C404.427 110.732 403.945 109.599 403.945 108.219C403.945 106.812 404.414 105.68 405.352 104.82C406.315 103.935 407.76 103.492 409.688 103.492H422.031C423.958 103.492 425.391 103.935 426.328 104.82C427.292 105.68 427.773 106.812 427.773 108.219C427.773 109.599 427.305 110.732 426.367 111.617C425.43 112.477 423.984 112.906 422.031 112.906ZM473.125 80.6797H446.992V94.7422H471.055C472.826 94.7422 474.141 95.1458 475 95.9531C475.885 96.7344 476.328 97.776 476.328 99.0781C476.328 100.38 475.898 101.448 475.039 102.281C474.18 103.089 472.852 103.492 471.055 103.492H446.992V119.781H474.023C475.846 119.781 477.214 120.211 478.125 121.07C479.062 121.904 479.531 123.023 479.531 124.43C479.531 125.784 479.062 126.891 478.125 127.75C477.214 128.583 475.846 129 474.023 129H442.5C439.974 129 438.151 128.44 437.031 127.32C435.938 126.201 435.391 124.391 435.391 121.891V78.8438C435.391 77.1771 435.638 75.8229 436.133 74.7812C436.628 73.7135 437.396 72.9453 438.438 72.4766C439.505 71.9818 440.859 71.7344 442.5 71.7344H473.125C474.974 71.7344 476.341 72.151 477.227 72.9844C478.138 73.7917 478.594 74.8594 478.594 76.1875C478.594 77.5417 478.138 78.6354 477.227 79.4688C476.341 80.276 474.974 80.6797 473.125 80.6797ZM537.539 110.914C537.539 112.737 537.083 114.716 536.172 116.852C535.286 118.961 533.88 121.044 531.953 123.102C530.026 125.133 527.565 126.786 524.57 128.062C521.576 129.339 518.086 129.977 514.102 129.977C511.081 129.977 508.333 129.69 505.859 129.117C503.385 128.544 501.133 127.659 499.102 126.461C497.096 125.237 495.247 123.635 493.555 121.656C492.044 119.859 490.755 117.854 489.688 115.641C488.62 113.401 487.812 111.018 487.266 108.492C486.745 105.966 486.484 103.284 486.484 100.445C486.484 95.8359 487.148 91.7083 488.477 88.0625C489.831 84.4167 491.758 81.3047 494.258 78.7266C496.758 76.1224 499.688 74.1432 503.047 72.7891C506.406 71.4349 509.987 70.7578 513.789 70.7578C518.424 70.7578 522.552 71.6823 526.172 73.5312C529.792 75.3802 532.565 77.6719 534.492 80.4062C536.419 83.1146 537.383 85.6797 537.383 88.1016C537.383 89.4297 536.914 90.6016 535.977 91.6172C535.039 92.6328 533.906 93.1406 532.578 93.1406C531.094 93.1406 529.974 92.7891 529.219 92.0859C528.49 91.3828 527.669 90.1719 526.758 88.4531C525.247 85.6146 523.464 83.4922 521.406 82.0859C519.375 80.6797 516.862 79.9766 513.867 79.9766C509.102 79.9766 505.299 81.7865 502.461 85.4062C499.648 89.026 498.242 94.1693 498.242 100.836C498.242 105.289 498.867 109 500.117 111.969C501.367 114.911 503.138 117.112 505.43 118.57C507.721 120.029 510.404 120.758 513.477 120.758C516.81 120.758 519.622 119.938 521.914 118.297C524.232 116.63 525.977 114.195 527.148 110.992C527.643 109.482 528.255 108.258 528.984 107.32C529.714 106.357 530.885 105.875 532.5 105.875C533.88 105.875 535.065 106.357 536.055 107.32C537.044 108.284 537.539 109.482 537.539 110.914ZM559.648 77.7891V94.1953H584.688V77.7891C584.688 75.4453 585.208 73.6875 586.25 72.5156C587.318 71.3438 588.711 70.7578 590.43 70.7578C592.174 70.7578 593.581 71.3438 594.648 72.5156C595.742 73.6615 596.289 75.4193 596.289 77.7891V122.906C596.289 125.276 595.742 127.047 594.648 128.219C593.555 129.391 592.148 129.977 590.43 129.977C588.685 129.977 587.292 129.391 586.25 128.219C585.208 127.021 584.688 125.25 584.688 122.906V103.648H559.648V122.906C559.648 125.276 559.102 127.047 558.008 128.219C556.914 129.391 555.508 129.977 553.789 129.977C552.044 129.977 550.651 129.391 549.609 128.219C548.568 127.021 548.047 125.25 548.047 122.906V77.7891C548.047 75.4453 548.555 73.6875 549.57 72.5156C550.612 71.3438 552.018 70.7578 553.789 70.7578C555.534 70.7578 556.94 71.3438 558.008 72.5156C559.102 73.6615 559.648 75.4193 559.648 77.7891ZM645.391 122.516L642.656 115.328H619.375L616.641 122.672C615.573 125.536 614.661 127.477 613.906 128.492C613.151 129.482 611.914 129.977 610.195 129.977C608.737 129.977 607.448 129.443 606.328 128.375C605.208 127.307 604.648 126.096 604.648 124.742C604.648 123.961 604.779 123.154 605.039 122.32C605.299 121.487 605.729 120.328 606.328 118.844L620.977 81.6562C621.393 80.5885 621.888 79.3125 622.461 77.8281C623.06 76.3177 623.685 75.0677 624.336 74.0781C625.013 73.0885 625.885 72.2943 626.953 71.6953C628.047 71.0703 629.388 70.7578 630.977 70.7578C632.591 70.7578 633.932 71.0703 635 71.6953C636.094 72.2943 636.966 73.0755 637.617 74.0391C638.294 75.0026 638.854 76.0443 639.297 77.1641C639.766 78.2578 640.352 79.7292 641.055 81.5781L656.016 118.531C657.188 121.344 657.773 123.388 657.773 124.664C657.773 125.992 657.214 127.216 656.094 128.336C655 129.43 653.672 129.977 652.109 129.977C651.198 129.977 650.417 129.807 649.766 129.469C649.115 129.156 648.568 128.727 648.125 128.18C647.682 127.607 647.201 126.747 646.68 125.602C646.185 124.43 645.755 123.401 645.391 122.516ZM622.422 106.617H639.531L630.898 82.9844L622.422 106.617ZM681.914 104.508H677.852V122.906C677.852 125.328 677.318 127.112 676.25 128.258C675.182 129.404 673.789 129.977 672.07 129.977C670.221 129.977 668.789 129.378 667.773 128.18C666.758 126.982 666.25 125.224 666.25 122.906V78.8438C666.25 76.3438 666.81 74.5339 667.93 73.4141C669.049 72.2943 670.859 71.7344 673.359 71.7344H692.227C694.831 71.7344 697.057 71.8516 698.906 72.0859C700.755 72.2943 702.422 72.737 703.906 73.4141C705.703 74.1693 707.292 75.25 708.672 76.6562C710.052 78.0625 711.094 79.7031 711.797 81.5781C712.526 83.4271 712.891 85.3932 712.891 87.4766C712.891 91.7474 711.68 95.1589 709.258 97.7109C706.862 100.263 703.216 102.073 698.32 103.141C700.378 104.234 702.344 105.849 704.219 107.984C706.094 110.12 707.76 112.398 709.219 114.82C710.703 117.216 711.849 119.391 712.656 121.344C713.49 123.271 713.906 124.599 713.906 125.328C713.906 126.083 713.659 126.839 713.164 127.594C712.695 128.323 712.044 128.896 711.211 129.312C710.378 129.755 709.414 129.977 708.32 129.977C707.018 129.977 705.924 129.664 705.039 129.039C704.154 128.44 703.385 127.672 702.734 126.734C702.109 125.797 701.25 124.417 700.156 122.594L695.508 114.859C693.841 112.021 692.344 109.859 691.016 108.375C689.714 106.891 688.385 105.875 687.031 105.328C685.677 104.781 683.971 104.508 681.914 104.508ZM688.555 80.4453H677.852V96.1875H688.242C691.029 96.1875 693.372 95.9531 695.273 95.4844C697.174 94.9896 698.62 94.1693 699.609 93.0234C700.625 91.8516 701.133 90.25 701.133 88.2188C701.133 86.6302 700.729 85.237 699.922 84.0391C699.115 82.8151 697.995 81.9036 696.562 81.3047C695.208 80.7318 692.539 80.4453 688.555 80.4453ZM757.109 81.3047H744.453V122.906C744.453 125.302 743.919 127.086 742.852 128.258C741.784 129.404 740.404 129.977 738.711 129.977C736.992 129.977 735.586 129.391 734.492 128.219C733.424 127.047 732.891 125.276 732.891 122.906V81.3047H720.234C718.255 81.3047 716.784 80.875 715.82 80.0156C714.857 79.1302 714.375 77.9714 714.375 76.5391C714.375 75.0547 714.87 73.8828 715.859 73.0234C716.875 72.1641 718.333 71.7344 720.234 71.7344H757.109C759.115 71.7344 760.599 72.1771 761.562 73.0625C762.552 73.9479 763.047 75.1068 763.047 76.5391C763.047 77.9714 762.552 79.1302 761.562 80.0156C760.573 80.875 759.089 81.3047 757.109 81.3047ZM813.438 111.812C813.438 115.276 812.539 118.388 810.742 121.148C808.971 123.909 806.367 126.07 802.93 127.633C799.492 129.195 795.417 129.977 790.703 129.977C785.052 129.977 780.391 128.909 776.719 126.773C774.115 125.237 771.992 123.193 770.352 120.641C768.737 118.062 767.93 115.562 767.93 113.141C767.93 111.734 768.411 110.536 769.375 109.547C770.365 108.531 771.615 108.023 773.125 108.023C774.349 108.023 775.378 108.414 776.211 109.195C777.07 109.977 777.799 111.135 778.398 112.672C779.128 114.495 779.909 116.018 780.742 117.242C781.602 118.466 782.799 119.482 784.336 120.289C785.872 121.07 787.891 121.461 790.391 121.461C793.828 121.461 796.615 120.667 798.75 119.078C800.911 117.464 801.992 115.458 801.992 113.062C801.992 111.161 801.406 109.625 800.234 108.453C799.089 107.255 797.591 106.344 795.742 105.719C793.919 105.094 791.471 104.43 788.398 103.727C784.284 102.763 780.833 101.643 778.047 100.367C775.286 99.0651 773.086 97.3073 771.445 95.0938C769.831 92.8542 769.023 90.0807 769.023 86.7734C769.023 83.6224 769.883 80.8229 771.602 78.375C773.32 75.9271 775.807 74.0521 779.062 72.75C782.318 71.4219 786.146 70.7578 790.547 70.7578C794.062 70.7578 797.096 71.2005 799.648 72.0859C802.227 72.9453 804.362 74.1042 806.055 75.5625C807.747 76.9948 808.984 78.5052 809.766 80.0938C810.547 81.6823 810.938 83.2318 810.938 84.7422C810.938 86.1224 810.443 87.3724 809.453 88.4922C808.49 89.5859 807.279 90.1328 805.82 90.1328C804.492 90.1328 803.477 89.8073 802.773 89.1562C802.096 88.4792 801.354 87.3854 800.547 85.875C799.505 83.7135 798.255 82.0339 796.797 80.8359C795.339 79.612 792.995 79 789.766 79C786.771 79 784.349 79.6641 782.5 80.9922C780.677 82.2943 779.766 83.8698 779.766 85.7188C779.766 86.8646 780.078 87.8542 780.703 88.6875C781.328 89.5208 782.188 90.237 783.281 90.8359C784.375 91.4349 785.482 91.9036 786.602 92.2422C787.721 92.5807 789.57 93.0755 792.148 93.7266C795.378 94.4818 798.294 95.3151 800.898 96.2266C803.529 97.138 805.755 98.2448 807.578 99.5469C809.427 100.849 810.859 102.503 811.875 104.508C812.917 106.487 813.438 108.922 813.438 111.812Z" fill="white"/>
<defs>
<clipPath id="clip0_2_70">
<rect width="185.6" height="200" fill="white"/>
</clipPath>
</defs>
</svg>
